# Blender v2.69 (sub 0) OBJ File: ''
# www.blender.org
mtllib cylinder.mtl
o cylinder.001
v 0.000000 0.000000 2.499999
v 0.000005 0.000001 -2.500001
v 0.487730 0.048039 -2.500001
v 0.487725 0.048038 2.499999
v 0.956713 0.190304 -2.500001
v 0.956707 0.190300 2.499999
v 1.388930 0.421329 -2.500001
v 1.388925 0.421325 2.499999
v 1.767770 0.732239 -2.500001
v 1.767768 0.732232 2.499999
v 2.078678 1.111079 -2.500000
v 2.078675 1.111075 2.500000
v 2.309700 1.543297 -2.500000
v 2.309700 1.543293 2.500000
v 2.451965 2.012282 -2.500000
v 2.451962 2.012275 2.500000
v 2.500000 2.500007 -2.500000
v 2.500000 2.500000 2.500000
v 2.451962 2.987732 -2.500000
v 2.451962 2.987725 2.500000
v 2.309698 3.456714 -2.500000
v 2.309700 3.456707 2.500000
v 2.078672 3.888929 -2.500000
v 2.078675 3.888925 2.500000
v 1.767765 4.267769 -2.499999
v 1.767768 4.267768 2.500001
v 1.388925 4.578677 -2.499999
v 1.388925 4.578675 2.500001
v 0.956710 4.809699 -2.499999
v 0.956707 4.809700 2.500001
v 0.487727 4.951964 -2.499999
v 0.487725 4.951962 2.500001
v 0.000002 5.000001 -2.499999
v 0.000000 5.000000 2.500001
v -0.487722 4.951964 -2.499999
v -0.487727 4.951962 2.500001
v -0.956705 4.809701 -2.499999
v -0.956710 4.809698 2.500001
v -1.388920 4.578679 -2.499999
v -1.388928 4.578672 2.500001
v -1.767762 4.267772 -2.499999
v -1.767768 4.267765 2.500001
v -2.078670 3.888934 -2.500000
v -2.078675 3.888925 2.500000
v -2.309695 3.456717 -2.500000
v -2.309700 3.456707 2.500000
v -2.451962 2.987737 -2.500000
v -2.451962 2.987722 2.500000
v -2.500000 2.500012 -2.500000
v -2.500000 2.499998 2.500000
v -2.451965 2.012287 -2.500000
v -2.451962 2.012273 2.500000
v -2.309703 1.543304 -2.500000
v -2.309698 1.543290 2.500000
v -2.078683 1.111087 -2.500000
v -2.078672 1.111072 2.500000
v -1.767777 0.732244 -2.500001
v -1.767765 0.732230 2.499999
v -1.388938 0.421336 -2.500001
v -1.388923 0.421325 2.499999
v -0.956722 0.190309 -2.500001
v -0.956705 0.190300 2.499999
v -0.487743 0.048041 -2.500001
v -0.487722 0.048035 2.499999
vt 2.240672 -0.000043
vt 2.240671 0.999957
vt 2.124629 0.999957
vt 2.124630 -0.000043
vt 2.008586 0.999957
vt 2.008587 -0.000043
vt 1.892544 0.999957
vt 1.892545 -0.000043
vt 1.776502 0.999957
vt 1.776503 -0.000043
vt 1.660459 0.999957
vt 1.660460 -0.000043
vt 1.544417 0.999957
vt 1.544418 -0.000043
vt 1.428374 0.999957
vt 1.428375 -0.000043
vt 1.312332 0.999957
vt 1.312333 -0.000043
vt 1.196290 0.999958
vt 1.196290 -0.000043
vt 1.080248 0.999958
vt 1.080248 -0.000043
vt 0.964206 0.999958
vt 0.964206 -0.000043
vt 0.848163 0.999958
vt 0.848163 -0.000043
vt 0.732121 0.999958
vt 0.732121 -0.000043
vt 0.616079 0.999958
vt 0.616079 -0.000043
vt 0.500037 0.999958
vt 0.500036 -0.000043
vt 0.383995 0.999958
vt 0.383994 -0.000043
vt 0.267953 0.999958
vt 0.267952 -0.000043
vt 0.151911 0.999958
vt 0.151909 -0.000043
vt 0.035868 0.999958
vt 0.035867 -0.000043
vt -0.080174 0.999958
vt -0.080175 -0.000043
vt -0.196216 0.999958
vt -0.196218 -0.000043
vt -0.312258 0.999958
vt -0.312260 -0.000043
vt -0.428300 0.999958
vt -0.428302 -0.000043
vt -0.544343 0.999958
vt -0.544345 -0.000043
vt -0.660385 0.999958
vt -0.660388 -0.000043
vt -0.776427 0.999957
vt -0.776430 -0.000043
vt -0.892469 0.999957
vt -0.892473 -0.000043
vt -1.008511 0.999957
vt -1.008515 -0.000043
vt -1.124553 0.999957
vt -1.124557 -0.000043
vt -1.240595 0.999957
vt -1.240600 -0.000043
vt -1.356637 0.999957
vt -1.356642 -0.000043
vt 2.356714 -0.000043
vt 2.356719 0.999957
vn 0.000003 -1.000000 -0.000000
vn 0.000000 -1.000000 -0.000000
vn 0.195092 -0.980785 0.000000
vn 0.195090 -0.980785 -0.000000
vn 0.382684 -0.923879 -0.000000
vn 0.382681 -0.923881 -0.000000
vn 0.555573 -0.831468 -0.000000
vn 0.555569 -0.831470 -0.000001
vn 0.707108 -0.707106 -0.000000
vn 0.707107 -0.707107 -0.000000
vn 0.831470 -0.555569 -0.000000
vn 0.831471 -0.555569 -0.000000
vn 0.923880 -0.382681 -0.000000
vn 0.980786 -0.195089 0.000000
vn 1.000000 0.000003 0.000000
vn 1.000000 -0.000000 -0.000000
vn 0.980785 0.195091 0.000000
vn 0.980785 0.195090 0.000000
vn 0.923879 0.382685 0.000000
vn 0.923880 0.382681 -0.000000
vn 0.831468 0.555572 0.000000
vn 0.831470 0.555569 -0.000000
vn 0.707108 0.707106 -0.000000
vn 0.707107 0.707107 0.000000
vn 0.555570 0.831470 0.000000
vn 0.555569 0.831470 0.000000
vn 0.382682 0.923880 0.000000
vn 0.382681 0.923881 0.000000
vn 0.195091 0.980785 0.000000
vn 0.195089 0.980785 0.000000
vn -0.000000 1.000000 0.000000
vn -0.195089 0.980785 0.000000
vn -0.195091 0.980785 0.000000
vn -0.382681 0.923881 0.000000
vn -0.382684 0.923880 0.000000
vn -0.555569 0.831471 0.000000
vn -0.555572 0.831469 0.000000
vn -0.707104 0.707109 0.000000
vn -0.707107 0.707107 0.000000
vn -0.831468 0.555573 -0.000000
vn -0.831469 0.555571 0.000000
vn -0.923878 0.382687 -0.000000
vn -0.923881 0.382681 0.000000
vn -0.980785 0.195094 0.000000
vn -0.980786 0.195089 0.000001
vn -1.000000 0.000004 0.000000
vn -1.000000 -0.000000 0.000000
vn -0.980786 -0.195086 -0.000000
vn -0.980785 -0.195092 0.000000
vn -0.923882 -0.382676 -0.000000
vn -0.923879 -0.382684 0.000000
vn -0.831473 -0.555565 -0.000000
vn -0.831469 -0.555571 0.000000
vn -0.707110 -0.707104 -0.000000
vn -0.707106 -0.707108 0.000000
vn -0.555574 -0.831467 -0.000001
vn -0.555568 -0.831471 0.000000
vn -0.382690 -0.923877 -0.000001
vn -0.382684 -0.923879 -0.000000
vn -0.195096 -0.980784 -0.000001
vn -0.195089 -0.980785 -0.000000
usemtl NormalMapping_diffuse.tga.001
s 1
f 1/1/1 2/2/2 3/3/3
f 1/1/1 3/3/3 4/4/4
f 4/4/4 3/3/3 5/5/5
f 4/4/4 5/5/5 6/6/6
f 6/6/6 5/5/5 7/7/7
f 6/6/6 7/7/7 8/8/8
f 8/8/8 7/7/7 9/9/9
f 8/8/8 9/9/9 10/10/10
f 10/10/10 9/9/9 11/11/11
f 10/10/10 11/11/11 12/12/12
f 12/12/12 11/11/11 13/13/13
f 12/12/12 13/13/13 14/14/13
f 14/14/13 13/13/13 15/15/14
f 14/14/13 15/15/14 16/16/14
f 16/16/14 15/15/14 17/17/15
f 16/16/14 17/17/15 18/18/16
f 18/18/16 17/17/15 19/19/17
f 18/18/16 19/19/17 20/20/18
f 20/20/18 19/19/17 21/21/19
f 20/20/18 21/21/19 22/22/20
f 22/22/20 21/21/19 23/23/21
f 22/22/20 23/23/21 24/24/22
f 24/24/22 23/23/21 25/25/23
f 24/24/22 25/25/23 26/26/24
f 26/26/24 25/25/23 27/27/25
f 26/26/24 27/27/25 28/28/26
f 28/28/26 27/27/25 29/29/27
f 28/28/26 29/29/27 30/30/28
f 30/30/28 29/29/27 31/31/29
f 30/30/28 31/31/29 32/32/30
f 32/32/30 31/31/29 33/33/31
f 32/32/30 33/33/31 34/34/31
f 34/34/31 33/33/31 35/35/32
f 34/34/31 35/35/32 36/36/33
f 36/36/33 35/35/32 37/37/34
f 36/36/33 37/37/34 38/38/35
f 38/38/35 37/37/34 39/39/36
f 38/38/35 39/39/36 40/40/37
f 40/40/37 39/39/36 41/41/38
f 40/40/37 41/41/38 42/42/39
f 42/42/39 41/41/38 43/43/40
f 42/42/39 43/43/40 44/44/41
f 44/44/41 43/43/40 45/45/42
f 44/44/41 45/45/42 46/46/43
f 46/46/43 45/45/42 47/47/44
f 46/46/43 47/47/44 48/48/45
f 48/48/45 47/47/44 49/49/46
f 48/48/45 49/49/46 50/50/47
f 50/50/47 49/49/46 51/51/48
f 50/50/47 51/51/48 52/52/49
f 52/52/49 51/51/48 53/53/50
f 52/52/49 53/53/50 54/54/51
f 54/54/51 53/53/50 55/55/52
f 54/54/51 55/55/52 56/56/53
f 56/56/53 55/55/52 57/57/54
f 56/56/53 57/57/54 58/58/55
f 58/58/55 57/57/54 59/59/56
f 58/58/55 59/59/56 60/60/57
f 60/60/57 59/59/56 61/61/58
f 60/60/57 61/61/58 62/62/59
f 62/62/59 61/61/58 63/63/60
f 62/62/59 63/63/60 64/64/61
f 2/2/2 1/1/1 64/65/61
f 2/2/2 64/65/61 63/66/60
