# Blender v2.69 (sub 0) OBJ File: ''
# www.blender.org
mtllib cylinder.mtl
o cylinder.001
v 0.000000 0.000001 -2.500000
v 0.000005 5.000001 -2.499999
v 0.487730 5.000001 -2.451961
v 0.487725 0.000001 -2.451962
v 0.956713 5.000001 -2.309696
v 0.956707 0.000001 -2.309700
v 1.388930 5.000001 -2.078671
v 1.388925 0.000001 -2.078675
v 1.767770 5.000001 -1.767761
v 1.767768 0.000001 -1.767768
v 2.078678 5.000000 -1.388921
v 2.078675 0.000000 -1.388925
v 2.309700 5.000000 -0.956703
v 2.309700 0.000000 -0.956707
v 2.451965 5.000000 -0.487718
v 2.451962 0.000000 -0.487725
v 2.500000 5.000000 0.000007
v 2.500000 0.000000 0.000000
v 2.451962 5.000000 0.487732
v 2.451962 -0.000000 0.487725
v 2.309698 5.000000 0.956714
v 2.309700 -0.000000 0.956707
v 2.078672 5.000000 1.388929
v 2.078675 -0.000000 1.388925
v 1.767765 4.999999 1.767769
v 1.767768 -0.000001 1.767768
v 1.388925 4.999999 2.078677
v 1.388925 -0.000001 2.078675
v 0.956710 4.999999 2.309699
v 0.956707 -0.000001 2.309700
v 0.487727 4.999999 2.451964
v 0.487725 -0.000001 2.451962
v 0.000002 4.999999 2.500001
v 0.000000 -0.000001 2.500000
v -0.487722 4.999999 2.451964
v -0.487727 -0.000001 2.451962
v -0.956705 4.999999 2.309701
v -0.956710 -0.000001 2.309698
v -1.388920 4.999999 2.078679
v -1.388928 -0.000001 2.078672
v -1.767762 4.999999 1.767772
v -1.767768 -0.000001 1.767765
v -2.078670 5.000000 1.388934
v -2.078675 -0.000000 1.388925
v -2.309695 5.000000 0.956717
v -2.309700 -0.000000 0.956707
v -2.451962 5.000000 0.487737
v -2.451962 -0.000000 0.487722
v -2.500000 5.000000 0.000012
v -2.500000 0.000000 -0.000002
v -2.451965 5.000000 -0.487713
v -2.451962 0.000000 -0.487727
v -2.309703 5.000000 -0.956696
v -2.309698 0.000000 -0.956710
v -2.078683 5.000000 -1.388913
v -2.078672 0.000000 -1.388928
v -1.767777 5.000001 -1.767756
v -1.767765 0.000001 -1.767770
v -1.388938 5.000001 -2.078664
v -1.388923 0.000001 -2.078675
v -0.956722 5.000001 -2.309691
v -0.956705 0.000001 -2.309700
v -0.487743 5.000001 -2.451959
v -0.487722 0.000001 -2.451965
vt 2.240672 -0.000043
vt 2.240671 0.999957
vt 2.124629 0.999957
vt 2.124630 -0.000043
vt 2.008586 0.999957
vt 2.008587 -0.000043
vt 1.892544 0.999957
vt 1.892545 -0.000043
vt 1.776502 0.999957
vt 1.776503 -0.000043
vt 1.660459 0.999957
vt 1.660460 -0.000043
vt 1.544417 0.999957
vt 1.544418 -0.000043
vt 1.428374 0.999957
vt 1.428375 -0.000043
vt 1.312332 0.999957
vt 1.312333 -0.000043
vt 1.196290 0.999958
vt 1.196290 -0.000043
vt 1.080248 0.999958
vt 1.080248 -0.000043
vt 0.964206 0.999958
vt 0.964206 -0.000043
vt 0.848163 0.999958
vt 0.848163 -0.000043
vt 0.732121 0.999958
vt 0.732121 -0.000043
vt 0.616079 0.999958
vt 0.616079 -0.000043
vt 0.500037 0.999958
vt 0.500036 -0.000043
vt 0.383995 0.999958
vt 0.383994 -0.000043
vt 0.267953 0.999958
vt 0.267952 -0.000043
vt 0.151911 0.999958
vt 0.151909 -0.000043
vt 0.035868 0.999958
vt 0.035867 -0.000043
vt -0.080174 0.999958
vt -0.080175 -0.000043
vt -0.196216 0.999958
vt -0.196218 -0.000043
vt -0.312258 0.999958
vt -0.312260 -0.000043
vt -0.428300 0.999958
vt -0.428302 -0.000043
vt -0.544343 0.999958
vt -0.544345 -0.000043
vt -0.660385 0.999958
vt -0.660388 -0.000043
vt -0.776427 0.999957
vt -0.776430 -0.000043
vt -0.892469 0.999957
vt -0.892473 -0.000043
vt -1.008511 0.999957
vt -1.008515 -0.000043
vt -1.124553 0.999957
vt -1.124557 -0.000043
vt -1.240595 0.999957
vt -1.240600 -0.000043
vt -1.356637 0.999957
vt -1.356642 -0.000043
vt 2.356714 -0.000043
vt 2.356719 0.999957
vn 0.000002 0.000000 -1.000000
vn 0.000000 0.000001 -1.000000
vn 0.195092 0.000000 -0.980785
vn 0.195089 0.000000 -0.980785
vn 0.382684 0.000000 -0.923879
vn 0.382681 0.000000 -0.923880
vn 0.555573 0.000000 -0.831468
vn 0.555570 0.000000 -0.831470
vn 0.707108 0.000000 -0.707106
vn 0.707107 0.000000 -0.707107
vn 0.831470 0.000000 -0.555569
vn 0.831470 0.000000 -0.555570
vn 0.923880 0.000000 -0.382681
vn 0.923880 0.000000 -0.382682
vn 0.980786 -0.000000 -0.195088
vn 0.980785 -0.000000 -0.195089
vn 1.000000 -0.000000 0.000003
vn 1.000000 0.000000 -0.000000
vn 0.980785 -0.000000 0.195092
vn 0.980785 0.000000 0.195089
vn 0.923879 -0.000000 0.382685
vn 0.923880 0.000000 0.382682
vn 0.831468 -0.000000 0.555572
vn 0.831470 0.000000 0.555570
vn 0.707107 -0.000000 0.707107
vn 0.555571 -0.000000 0.831469
vn 0.555570 -0.000000 0.831470
vn 0.382683 -0.000000 0.923880
vn 0.382682 -0.000000 0.923880
vn 0.195091 -0.000000 0.980785
vn 0.195090 -0.000000 0.980785
vn -0.000000 -0.000000 1.000000
vn 0.000001 -0.000000 1.000000
vn -0.195090 -0.000000 0.980785
vn -0.195091 -0.000000 0.980785
vn -0.382681 -0.000000 0.923881
vn -0.382684 -0.000000 0.923879
vn -0.555569 -0.000000 0.831471
vn -0.555572 -0.000000 0.831469
vn -0.707104 -0.000000 0.707109
vn -0.707107 -0.000000 0.707107
vn -0.831468 -0.000000 0.555572
vn -0.831469 -0.000000 0.555571
vn -0.923878 0.000000 0.382687
vn -0.923880 -0.000000 0.382681
vn -0.980784 0.000000 0.195095
vn -0.980786 -0.000001 0.195088
vn -1.000000 0.000000 0.000003
vn -1.000000 -0.000000 -0.000000
vn -0.980786 0.000000 -0.195087
vn -0.980785 -0.000000 -0.195092
vn -0.923882 0.000000 -0.382678
vn -0.923879 -0.000000 -0.382684
vn -0.831473 0.000000 -0.555565
vn -0.831470 -0.000000 -0.555570
vn -0.707109 0.000000 -0.707104
vn -0.707105 -0.000000 -0.707108
vn -0.555574 0.000001 -0.831467
vn -0.555568 -0.000000 -0.831471
vn -0.382690 0.000001 -0.923877
vn -0.382684 0.000000 -0.923879
vn -0.195094 0.000001 -0.980784
vn -0.195090 0.000000 -0.980785
usemtl NormalMapping_diffuse.tga.001
s 1
f 1/1/1 2/2/2 3/3/3
f 1/1/1 3/3/3 4/4/4
f 4/4/4 3/3/3 5/5/5
f 4/4/4 5/5/5 6/6/6
f 6/6/6 5/5/5 7/7/7
f 6/6/6 7/7/7 8/8/8
f 8/8/8 7/7/7 9/9/9
f 8/8/8 9/9/9 10/10/10
f 10/10/10 9/9/9 11/11/11
f 10/10/10 11/11/11 12/12/12
f 12/12/12 11/11/11 13/13/13
f 12/12/12 13/13/13 14/14/14
f 14/14/14 13/13/13 15/15/15
f 14/14/14 15/15/15 16/16/16
f 16/16/16 15/15/15 17/17/17
f 16/16/16 17/17/17 18/18/18
f 18/18/18 17/17/17 19/19/19
f 18/18/18 19/19/19 20/20/20
f 20/20/20 19/19/19 21/21/21
f 20/20/20 21/21/21 22/22/22
f 22/22/22 21/21/21 23/23/23
f 22/22/22 23/23/23 24/24/24
f 24/24/24 23/23/23 25/25/25
f 24/24/24 25/25/25 26/26/25
f 26/26/25 25/25/25 27/27/26
f 26/26/25 27/27/26 28/28/27
f 28/28/27 27/27/26 29/29/28
f 28/28/27 29/29/28 30/30/29
f 30/30/29 29/29/28 31/31/30
f 30/30/29 31/31/30 32/32/31
f 32/32/31 31/31/30 33/33/32
f 32/32/31 33/33/32 34/34/33
f 34/34/33 33/33/32 35/35/34
f 34/34/33 35/35/34 36/36/35
f 36/36/35 35/35/34 37/37/36
f 36/36/35 37/37/36 38/38/37
f 38/38/37 37/37/36 39/39/38
f 38/38/37 39/39/38 40/40/39
f 40/40/39 39/39/38 41/41/40
f 40/40/39 41/41/40 42/42/41
f 42/42/41 41/41/40 43/43/42
f 42/42/41 43/43/42 44/44/43
f 44/44/43 43/43/42 45/45/44
f 44/44/43 45/45/44 46/46/45
f 46/46/45 45/45/44 47/47/46
f 46/46/45 47/47/46 48/48/47
f 48/48/47 47/47/46 49/49/48
f 48/48/47 49/49/48 50/50/49
f 50/50/49 49/49/48 51/51/50
f 50/50/49 51/51/50 52/52/51
f 52/52/51 51/51/50 53/53/52
f 52/52/51 53/53/52 54/54/53
f 54/54/53 53/53/52 55/55/54
f 54/54/53 55/55/54 56/56/55
f 56/56/55 55/55/54 57/57/56
f 56/56/55 57/57/56 58/58/57
f 58/58/57 57/57/56 59/59/58
f 58/58/57 59/59/58 60/60/59
f 60/60/59 59/59/58 61/61/60
f 60/60/59 61/61/60 62/62/61
f 62/62/61 61/61/60 63/63/62
f 62/62/61 63/63/62 64/64/63
f 2/2/2 1/1/1 64/65/63
f 2/2/2 64/65/63 63/66/62
